<?xml version="1.0" encoding="UTF-8" standalone="no"?>
<!-- Created with Inkscape (http://www.inkscape.org/) -->

<svg
   width="86.009834mm"
   height="26.673882mm"
   viewBox="0 0 86.009835 26.673881"
   version="1.1"
   id="svg5"
   inkscape:version="1.1 (c68e22c387, 2021-05-23)"
   sodipodi:docname="Netytar.svg"
   xmlns:inkscape="http://www.inkscape.org/namespaces/inkscape"
   xmlns:sodipodi="http://sodipodi.sourceforge.net/DTD/sodipodi-0.dtd"
   xmlns="http://www.w3.org/2000/svg"
   xmlns:svg="http://www.w3.org/2000/svg">
  <sodipodi:namedview
     id="namedview7"
     pagecolor="#ffffff"
     bordercolor="#666666"
     borderopacity="1.0"
     inkscape:pageshadow="2"
     inkscape:pageopacity="0.0"
     inkscape:pagecheckerboard="0"
     inkscape:document-units="mm"
     showgrid="false"
     inkscape:zoom="0.98142808"
     inkscape:cx="271.54308"
     inkscape:cy="59.607017"
     inkscape:window-width="1920"
     inkscape:window-height="1051"
     inkscape:window-x="-9"
     inkscape:window-y="-9"
     inkscape:window-maximized="1"
     inkscape:current-layer="layer2"
     fit-margin-top="0"
     fit-margin-left="0"
     fit-margin-right="0"
     fit-margin-bottom="0" />
  <defs
     id="defs2" />
  <g
     inkscape:label="Layer 1"
     inkscape:groupmode="layer"
     id="layer1"
     transform="translate(-59.42342,-80.844391)" />
  <g
     inkscape:groupmode="layer"
     id="layer2"
     inkscape:label="Layer 2"
     transform="translate(-5.8671577,7.0775722)">
    <g
       aria-label="Netytar"
       id="text2630"
       style="font-size:25.4px;line-height:1.25;font-family:Legibility;-inkscape-font-specification:Legibility;mix-blend-mode:difference;stroke:#ffffff;stroke-width:2;paint-order:stroke fill markers"
       transform="translate(-2.7365442,5.8627638)">
      <path
         d="m 23.179516,-11.787936 q 1.5494,-0.381 1.5494,1.4224 0.0254,1.8542001 0.8128,6.1722001 0.8128,4.29259991 2.159,7.9501999 0,-1.2192 0.2794,-3.60679999 0.2794,-2.41300001 1.016,-5.43559991 0.762,-3.0226 1.7526,-4.4957999 1.4224,-2.1336002 3.556,-2.1590002 1.2446,0 1.8034,0.6096 0.6096,0.635 -0.0254,1.2954 -1.8542,2.0574001 -3.6576,7.5438001 -1.778,5.4863999 -2.2606,10.1853998 0.0254,1.0922 -0.1778,1.3208 -0.0508,0.2032 -0.3302,0.1778 -0.2286,0.0254 -0.4826,-0.1778 -0.4826,-0.254 -1.27,-0.9652 -1.6002,-1.5748 -3.2766,-4.1401999 -1.2446,-2.032 -2.413,-5.3594 -0.635,2.2606 -0.9652,3.2766 -0.0762,0.2032 -0.3302,0.8382 -0.2286,0.635 -0.3302,0.9144 -0.1016,0.254 -0.3302,0.7619999 -0.2032,0.508 -0.4572,0.9652 -0.2286,0.4318 -0.5334,0.889 -0.9398,1.4732 -2.6416,2.2098 -1.6764,0.7366 -3.175,0.3302 -0.9652,-0.3048 -1.8542,-0.889 -0.8636,-0.5842 -1.27,-0.9906 -0.4063999,-0.381 -0.4825999,-0.5334 0,0 -0.0508,-0.1016 -0.4318,-0.7366 0.2539999,-0.6858 0.3048,0 0.8636,0.1778 1.0414,0.381 2.032,0.0508 1.016,-0.3556 1.9304,-1.4732 0.9398,-1.1429999 1.651,-2.2351999 0.7366,-1.0922 1.5494,-2.97179997 0.8382,-1.90499993 1.2446,-2.94639993 0.4318,-1.0668 1.1176,-2.8702 0.4572,-1.2446 0.6604,-1.7526 -0.7112,0.4318 -1.3716,0.9398 -0.9652,0.8636 -1.4732,1.4986 -0.508,0.635 -0.6604,0.9906 -0.1524,0.3556 -0.3048,1.0414 -0.0508,0.1524 -0.0762,0.254 -0.127,0.381 -0.4318,0.0508 -0.254,-0.2794 -0.3556,-0.8636 -0.254,-1.397 1.1938,-3.4544 0.9398,-1.2699999 2.3876,-2.2352001 1.4478,-0.9906 3.175,-1.524 z"
         style="font-family:'Brigest Script';-inkscape-font-specification:'Brigest Script'"
         id="path1359" />
      <path
         d="m 40.146668,-3.5837359 q -0.5842,0 -1.4986,1.0668 -0.889,1.0413999 -1.6764,2.53999991 0.7874,0.2794 1.5494,-0.127 0.4826,-0.25399999 0.9906,-1.09220001 0.508,-0.8382 0.7112,-1.5747999 0.2286,-0.762 0.0254,-0.8128 -0.0508,0 -0.1016,0 z m -0.9398,-1.651 q 2.0574,0 2.4638,1.7018 0.3556,1.5493999 -0.7366,3.25119992 -1.1684,1.82879998 -2.8956,2.00659998 -0.8636,0.1016 -1.7272,-0.3048 -0.7112,1.7272 -0.635,2.7685999 0.1016,0.5842 0.4826,0.762 0.4064,0.1524 0.889,0.0254 0.508,-0.1524 1.0922,-0.508 1.2954,-0.8889999 2.2098,-1.9303999 0.9398,-1.0668 1.9304,-2.59079999 0,0 0.0254,-0.0508 0.0508,-0.0762 0.0508,-0.0762 0.0254,-0.0254 0.0508,-0.0508 0.0508,-0.0508 0.0762,-0.0762 0.0508,-0.0254 0.0762,-0.0254 0.0508,-0.0254 0.127,-0.0254 h 0.9144 q 0.1778,0 0,0.27939999 -0.0254,0.0254 -0.0508,0.1016 -0.7112,1.1176 -1.2446,1.905 -0.5334,0.762 -1.397,1.7272 -0.8636,0.9397999 -1.7018,1.5239999 -0.8128,0.5842 -1.9812,1.016 -1.143,0.4318 -2.413,0.4826 -0.8636,-0.0254 -1.4986,-0.3302 -0.6096,-0.3302 -0.9144,-1.0668 -0.3302,-0.762 -0.254,-1.7779999 0.0762,-1.0414 0.3556,-2.1336 0.2794,-1.0922 0.8636,-2.18439998 0.6096,-1.09220002 1.3208,-1.98119992 0.7366,-0.889 1.6764,-1.524 0.9652,-0.635 1.9812,-0.8128 0.4064,-0.1016 0.8636,-0.1016 z"
         style="font-family:'Brigest Script';-inkscape-font-specification:'Brigest Script'"
         id="path1361" />
      <path
         d="m 48.554056,-11.254536 q 0.5842,0 1.0414,0.5842 0.4826,0.5588 0.5842,1.3716002 0.127,0.7873999 -0.1524,1.6509999 0.8382,-0.0762 1.5748,0.1524 0.736599,0.2032 1.930399,0.9398 0.127,0.0762 0.0508,0.3048 -0.0762,0.2032 -0.2794,0.1778 -2.641599,-0.381 -4.038599,-0.1524 -1.0668,1.9558 -2.5654,4.9275999 -1.4732,2.9718 -2.2098,4.6736 -0.127,0.381 -0.254,0.7874 -0.1778,0.5841999 0.3302,0.4571999 0.5588,-0.1524 1.651,-1.0413999 1.651,-1.4732 3.1242,-3.65759999 0.0254,-0.0508 0.0508,-0.10159999 0.0508,-0.0762 0.0762,-0.1016 0.0254,-0.0508 0.0762,-0.0762 0.0762,-0.0254 0.1524,-0.0254 h 0.9144 q 0.2286,0 0,0.35559999 -2.1844,3.47979999 -5.0038,5.58799989 -0.254,0.1778 -0.5334,0.3556 -4.2926,2.2606 -4.1402,-1.1176 0.1524,-3.1749999 3.9624,-10.5155998 -0.508,0.0254 -1.0414,0.0254 -0.508,-0.0254 -1.016,-0.381 -0.4826,-0.381 -0.7874,-0.8636 -0.1524,-0.3048 -0.1524,-0.5334 0,-0.4064 0.4318,-0.4064 0.1524,0 0.381,0.0762 1.1938,0.3556 3.048,0.4572 1.9304,-3.5306001 2.1336,-3.6830001 0.3302,-0.2286 0.6604,-0.2286 z"
         style="font-family:'Brigest Script';-inkscape-font-specification:'Brigest Script'"
         id="path1363" />
      <path
         d="m 51.729018,7.5922639 q -0.635,0.3302 -1.397,1.0668 -0.762,0.762 -1.2192,1.4986001 -0.6858,1.2954 -0.254,1.4224 0.2794,0.1016 0.9144,-0.6604 0.6858,-0.9398001 1.9558,-3.3274001 z m 5.969,-12.6999998 q 0.6096,-0.3556 1.0922,-0.1524 0.4826,0.2032 0.8382,0.8128 0.4064,0.6604 0.4572,1.524 0.0508,0.8381999 -0.381,1.6763999 -0.5842,0.96520002 -1.5748,2.9718 -0.9652,1.9812 -1.1684,2.4891999 l -0.1778,0.3556 q 0.0508,-0.0254 0.1524,-0.0762 0.508,-0.254 0.7874,-0.4571999 0.3048,-0.2032 0.8382,-0.6604 0.5588,-0.4826 1.2192,-1.3208 0.6858,-0.8382 1.5748,-2.10819999 0,0 0.0254,-0.0508 0.0508,-0.0762 0.0508,-0.0762 0.0254,-0.0254 0.0508,-0.0508 0.0508,-0.0508 0.0762,-0.0762 0.0508,-0.0254 0.0762,-0.0254 0.0508,-0.0254 0.127,-0.0254 h 0.9144 q 0.1778,0 0,0.27939999 -0.0254,0.0254 -0.0508,0.1016 -0.5842,0.91439999 -1.1176,1.6764 -1.3208,1.905 -2.5146,2.9209999 -1.1938,1.016 -2.8194,1.7018 -0.0762,0.0254 -0.1524,0.0508 -0.5842,1.3716 -1.4986,2.6924 -0.9144,1.3462001 -1.7272,2.0320001 -1.524,1.3462 -3.1242,1.6002 -1.6256,0.2286 -1.7272,-1.0922 -0.0254,-0.3048 0.0508,-0.635 0.2286,-1.3208001 1.4224,-2.6670001 1.2192,-1.3462 2.7178,-2.3368 -4.7244,2.2352 -4.572,-0.9652 0.127,-2.5399999 2.9464,-7.3913999 1.0414,-1.7779999 1.3208,-2.0065999 0.7112,-0.508 1.4224,0.0762 0.7112,0.5842 0.8636,1.6256 0.1524,1.0159999 -0.3556,2.08279991 -1.016,1.72719999 -1.8796,3.47979999 -0.8636,1.7525999 -0.6096,1.9049999 0.4318,0.2794 2.286,-1.2699999 1.1684,-2.89560001 2.3876,-5.4864 1.2192,-2.6161999 1.7526,-3.1241999 z"
         style="font-family:'Brigest Script';-inkscape-font-specification:'Brigest Script'"
         id="path1365" />
      <path
         d="m 67.629392,-11.254536 q 0.5842,0 1.0414,0.5842 0.4826,0.5588 0.5842,1.3716002 0.127,0.7873999 -0.1524,1.6509999 0.8382,-0.0762 1.5748,0.1524 0.7366,0.2032 1.9304,0.9398 0.127,0.0762 0.0508,0.3048 -0.0762,0.2032 -0.2794,0.1778 -2.6416,-0.381 -4.0386,-0.1524 -1.0668,1.9558 -2.5654,4.9275999 -1.4732,2.9718 -2.2098,4.6736 -0.127,0.381 -0.254,0.7874 -0.1778,0.5841999 0.3302,0.4571999 0.5588,-0.1524 1.651,-1.0413999 1.651,-1.4732 3.1242,-3.65759999 0.0254,-0.0508 0.0508,-0.10159999 0.0508,-0.0762 0.0762,-0.1016 0.0254,-0.0508 0.0762,-0.0762 0.0762,-0.0254 0.1524,-0.0254 h 0.9144 q 0.2286,0 0,0.35559999 -2.1844,3.47979999 -5.0038,5.58799989 -0.254,0.1778 -0.5334,0.3556 -4.2926,2.2606 -4.1402,-1.1176 0.1524,-3.1749999 3.9624,-10.5155998 -0.508,0.0254 -1.0414,0.0254 -0.508,-0.0254 -1.016,-0.381 -0.4826,-0.381 -0.7874,-0.8636 -0.1524,-0.3048 -0.1524,-0.5334 0,-0.4064 0.4318,-0.4064 0.1524,0 0.381,0.0762 1.1938,0.3556 3.048,0.4572 1.9304,-3.5306001 2.1336,-3.6830001 0.3302,-0.2286 0.6604,-0.2286 z"
         style="font-family:'Brigest Script';-inkscape-font-specification:'Brigest Script'"
         id="path1367" />
      <path
         d="m 76.570155,-2.9741359 q -0.1524,-0.7874 -0.9398,-0.6096 -0.9144,0.2032 -2.032,1.6001999 -1.1176,1.39700002 -1.8796,3.2004 -0.7366,1.778 -0.6604,2.9717999 0.0254,0.7366 0.7112,0.4318 0.889,-0.4064 1.8288,-2.1081999 0.4318,-0.7874 1.4224,-2.46379999 0.6096,-1.24460001 1.3462,-2.48920001 0.1016,-0.2793999 0.2032,-0.5333999 z m 2.0828,-2.2606 q 0.635,-0.0254 1.1176,0.635 0.508,0.6604 0.5588,1.5748 0.0762,0.8889999 -0.3556,1.7779999 -0.762,1.27000001 -1.6256,2.9464 -0.8636,1.6764 -1.1176,2.5145999 -0.1778,0.5842 0.3302,0.4318 0.5588,-0.1524 1.651,-1.0159999 1.397,-1.27 3.0226,-3.68299999 0,0 0.0254,-0.0508 0.0508,-0.0762 0.0508,-0.0762 0.0254,-0.0254 0.0508,-0.0508 0.0508,-0.0508 0.0762,-0.0762 0.0254,-0.0254 0.0762,-0.0254 0.0508,-0.0254 0.127,-0.0254 h 0.9144 q 0.1778,0 0,0.27939999 -0.0254,0.0254 -0.0762,0.1016 -1.2446,2.0066 -2.5146,3.4798 -1.2446,1.4731999 -2.8194,2.3875999 -0.5588,0.254 -0.8128,0.381 -0.254,0.1016 -0.7366,0.2794 -0.4826,0.1778 -0.9398,0.254 -1.4224,0.2794 -1.9304,-0.381 -0.508,-0.6604 -0.2794,-2.032 -0.8636,1.0414 -2.1082,1.905 -0.9906,0.635 -2.0828,0.2794 -1.0668,-0.381 -1.4732,-1.2954 -0.3302,-0.762 -0.254,-1.7779999 0.0762,-1.0414 0.3556,-2.1336 0.2794,-1.0922 0.8636,-2.18439998 0.6096,-1.09220002 1.3208,-1.98119992 0.7366,-0.889 1.6764,-1.524 0.9652,-0.635 1.9812,-0.8128 1.143,-0.254 2.1336,0.1016 1.016,0.3302 1.3462,1.1938 0.6604,-1.0414 0.8382,-1.1938 0.2794,-0.2032 0.6096,-0.2032 z"
         style="font-family:'Brigest Script';-inkscape-font-specification:'Brigest Script'"
         id="path1369" />
      <path
         d="m 86.14594,-8.0795359 q 0.5842,-0.0254 1.0922,0.2794 0.508,0.2794 0.6858,0.635 0.1778,0.3556 0,0.5334 -0.6858,0.7112 -1.016,1.2954 4.2164,0.0762 4.6482,1.2954 0.1016,0.3302 -0.0762,0.4572 -1.0414,0.9652 -2.54,4.1909999 -1.4986,3.2258 -1.2192,4.1655999 0.3556,0.2286 1.778,-1.3207999 1.4224,-1.5748 2.6416,-3.50519999 0.1778,-0.30479999 0.4064,-0.30479999 h 0.9398 q 0.127,0 0.127,0.0508 0,0.0508 -0.1778,0.33019999 -0.1524,0.2286 -0.5842,0.86359999 -0.4064,0.6096 -0.6096,0.889 -0.1778,0.2794 -0.6096,0.889 -0.4064,0.5842 -0.6604,0.889 -0.254,0.2794 -0.7112,0.7873999 -0.4318,0.508 -0.762,0.7874 -0.3302,0.254 -0.8128,0.635 -0.4572,0.3556 -0.889,0.5588 -0.4064,0.1778 -0.9144,0.3302 -0.508,0.1524 -1.016,0.2032 -2.8448,0.0762 -1.1684,-4.5719999 0.508,-1.4986 1.397,-3.12419997 0.889,-1.65099993 1.7018,-2.81939993 -0.2286,-0.0762 -0.889,-0.1524 -0.6604,-0.0762 -0.8636,-0.0508 -0.2286,0.3302 -0.7874,1.1938 -0.5334,0.8381999 -0.9398,1.4477999 -0.4064,0.60960002 -0.762,1.16840001 -0.0508,0.127 -0.3556,0.127 h -0.7874 q -0.254,0 -0.1016,-0.2032 0.2286,-0.38099999 1.1684,-1.80340001 0.9398,-1.4223999 1.397,-2.2097999 -1.016,-0.4064 -1.2192,-1.3716 -0.2032,-0.9652 0.5842,-1.7018 0.889,-0.8636 1.905,-0.8636 z"
         style="font-family:'Brigest Script';-inkscape-font-specification:'Brigest Script'"
         id="path1371" />
    </g>
  </g>
</svg>
